<svg width="32" height="32" viewBox="0 0 32 32" fill="none" xmlns="http://www.w3.org/2000/svg">
<path d="M28.9465 27.0533L23.9999 22.1467C25.92 19.7525 26.8499 16.7137 26.5983 13.6551C26.3467 10.5964 24.9328 7.75038 22.6472 5.70219C20.3617 3.65401 17.3783 2.55935 14.3104 2.64329C11.2426 2.72724 8.3235 3.98342 6.15339 6.15352C3.98329 8.32363 2.72711 11.2427 2.64317 14.3106C2.55922 17.3784 3.65388 20.3618 5.70206 22.6474C7.75025 24.9329 10.5963 26.3468 13.6549 26.5984C16.7136 26.85 19.7524 25.9201 22.1465 24L27.0532 28.9067C27.1772 29.0316 27.3246 29.1308 27.4871 29.1985C27.6496 29.2662 27.8239 29.3011 27.9999 29.3011C28.1759 29.3011 28.3502 29.2662 28.5126 29.1985C28.6751 29.1308 28.8226 29.0316 28.9465 28.9067C29.1869 28.658 29.3212 28.3258 29.3212 27.98C29.3212 27.6342 29.1869 27.302 28.9465 27.0533ZM14.6665 24C12.8206 24 11.0161 23.4526 9.48122 22.427C7.94636 21.4015 6.75008 19.9438 6.04366 18.2384C5.33725 16.5329 5.15241 14.6563 5.51254 12.8458C5.87267 11.0353 6.76159 9.37229 8.06688 8.067C9.37217 6.76171 11.0352 5.8728 12.8457 5.51267C14.6562 5.15254 16.5328 5.33737 18.2383 6.04379C19.9437 6.75021 21.4014 7.94649 22.4269 9.48134C23.4525 11.0162 23.9999 12.8207 23.9999 14.6667C23.9999 17.142 23.0165 19.516 21.2662 21.2663C19.5159 23.0167 17.1419 24 14.6665 24Z" fill="#131313"/>
</svg>
