<svg width="30" height="30" viewBox="0 0 30 30" fill="none" xmlns="http://www.w3.org/2000/svg">
<path d="M15 3C8.39844 3 3 8.39844 3 15C3 21.6016 8.39844 27 15 27C21.6016 27 27 21.6016 27 15C27 8.39844 21.6016 3 15 3ZM19.7305 21C19.5117 21 19.4023 20.8906 19.1797 20.7812C17.5312 19.7891 15.4414 19.2383 13.2422 19.2383C12.0312 19.2383 10.7109 19.4609 9.60938 19.6797C9.39062 19.6797 9.17188 19.7891 9.0625 19.7891C8.62109 19.7891 8.28906 19.4609 8.28906 19.0195C8.28906 18.5781 8.51172 18.25 8.94922 18.25C10.3828 17.9219 11.8125 17.6992 13.3516 17.6992C15.8828 17.6992 18.1914 18.3594 20.1719 19.4609C20.3906 19.6797 20.6133 19.7891 20.6133 20.2305C20.3906 20.7812 20.0586 21 19.7305 21ZM20.9414 17.9219C20.7188 17.9219 20.5 17.8125 20.2812 17.6992C18.4102 16.4922 15.7695 15.832 12.9102 15.832C11.4805 15.832 10.1602 16.0508 9.17188 16.2695C8.94922 16.3828 8.83984 16.3828 8.62109 16.3828C8.07031 16.3828 7.73828 15.9414 7.73828 15.5C7.73828 14.9492 7.96094 14.7305 8.50781 14.5078C9.82812 14.1797 11.1484 13.8477 13.0195 13.8477C16.1016 13.8477 18.9609 14.6172 21.3828 16.0508C21.7109 16.2695 21.9297 16.5977 21.9297 16.9297C21.8203 17.4805 21.4922 17.9219 20.9414 17.9219ZM22.3711 14.3984C22.1484 14.3984 22.0391 14.2891 21.7109 14.1797C19.5117 12.9688 16.3203 12.1992 13.2383 12.1992C11.6992 12.1992 10.0508 12.4219 8.61719 12.75C8.39844 12.75 8.28906 12.8594 7.96094 12.8594C7.30078 12.9727 6.85938 12.4219 6.85938 11.7617C6.85938 11.1016 7.1875 10.7695 7.62891 10.6602C9.39062 10.2188 11.2617 10 13.2383 10C16.6484 10 20.1719 10.7695 22.9219 12.1992C23.25 12.4219 23.582 12.75 23.582 13.3008C23.4727 13.9609 23.0312 14.3984 22.3711 14.3984Z" fill="#00CE43"/>
</svg>
